<?xml version="1.0" standalone="no"?>
<!DOCTYPE svg PUBLIC "-//W3C//DTD SVG 20010904//EN"
 "http://www.w3.org/TR/2001/REC-SVG-20010904/DTD/svg10.dtd">
<svg version="1.0" xmlns="http://www.w3.org/2000/svg"
 width="600.000000pt" height="600.000000pt" viewBox="0 0 600.000000 600.000000"
 preserveAspectRatio="xMidYMid meet">
<metadata>
Created by potrace 1.11, written by Peter Selinger 2001-2013
</metadata>
<g transform="translate(0.000000,600.000000) scale(0.100000,-0.100000)"
fill="#000000" stroke="none">
<path d="M2725 5990 c-85 -9 -162 -19 -195 -25 -14 -3 -41 -7 -60 -10 -19 -3
-42 -8 -50 -10 -8 -2 -27 -6 -42 -9 -113 -19 -423 -114 -523 -160 -16 -8 -52
-24 -80 -36 -248 -109 -533 -290 -745 -475 -64 -56 -256 -249 -317 -320 -212
-247 -398 -561 -518 -875 -61 -159 -127 -399 -150 -540 -4 -25 -9 -54 -11 -65
-4 -19 -6 -38 -22 -175 -15 -132 -7 -589 12 -685 2 -11 7 -42 10 -70 4 -27 9
-57 11 -65 2 -8 7 -29 10 -47 19 -115 86 -353 132 -473 161 -417 374 -749 678
-1056 246 -249 482 -421 795 -580 52 -27 97 -49 100 -50 3 0 17 -6 33 -12 15
-7 39 -17 55 -24 15 -6 29 -12 32 -13 3 -1 19 -7 35 -14 115 -48 373 -123 500
-145 251 -46 306 -50 570 -51 205 0 338 6 415 19 14 3 42 7 63 10 20 3 54 9
75 12 129 19 470 120 614 180 232 98 530 276 728 434 95 76 337 310 400 385
261 317 431 613 559 977 30 85 78 255 87 306 3 14 11 56 19 92 8 36 17 88 21
116 3 27 8 56 9 65 27 140 27 645 1 789 -3 14 -7 47 -11 73 -5 42 -25 142 -55
277 -16 75 -91 300 -130 395 -93 224 -253 507 -366 650 -14 17 -28 35 -32 40
-117 160 -358 404 -542 548 -79 62 -229 162 -340 227 -67 39 -247 133 -260
135 -3 0 -27 11 -55 24 -99 45 -337 126 -445 151 -94 22 -292 59 -345 66 -33
3 -69 8 -80 11 -33 8 -515 10 -590 3z"/>
</g>
</svg>
